# xmcd CD database file
#
# Track frame offsets:
#	150
#	11137
#	35577
#	143947
#	157672
#	266250
#
# Disc length: 4500 seconds
#
# Revision: 0
# Processed by: cddbd v1.5.2PL0 Copyright (c) Steve Scherf et al.
# Submitted via: CDex 1.70beta2
#
DISCID=44119206
DTITLE=Don Miguel Ruiz - Les 4 Accords Toltèques #1
DYEAR=2003
DGENRE=New Age
TTITLE0=Introduction
TTITLE1=Le mirroir de fumée
TTITLE2=Le processus de domestication et le rêve de la planète
TTITLE3=Prélude à un nouveau rêve
TTITLE4=Premier Accord Toltèque - que votre parole soit impeccable
TTITLE5=Deuxième Accord - Quoi qu'il arrive, n'en faites pas une affaire personnelle
EXTD=YEAR: 2003
EXTT0=
EXTT1=
EXTT2=
EXTT3=
EXTT4=
EXTT5=
PLAYORDER=
